<?xml version="1.0" encoding="utf-8"?>
<!-- Generator: Adobe Illustrator 25.3.1, SVG Export Plug-In . SVG Version: 6.00 Build 0)  -->
<svg version="1.1" id="Layer_1" xmlns="http://www.w3.org/2000/svg" xmlns:xlink="http://www.w3.org/1999/xlink" x="0px" y="0px"
	 viewBox="0 0 250.4 310.2" style="enable-background:new 0 0 250.4 310.2;" xml:space="preserve">
<style type="text/css">
	.st0{fill:url(#SVGID_1_);}
	.st1{fill:url(#SVGID_2_);}
	.st2{fill:url(#SVGID_3_);}
</style>
<g id="Layer_2_1_">
	<g id="Layer_1-2">
		
			<linearGradient id="SVGID_1_" gradientUnits="userSpaceOnUse" x1="46.6099" y1="197.7192" x2="228.1499" y2="104.4992" gradientTransform="matrix(1 0 0 -1 0 312)">
			<stop  offset="0" style="stop-color:#8EEDA0"/>
			<stop  offset="1" style="stop-color:#6FFFE9"/>
		</linearGradient>
		<path class="st0" d="M127.6,45h0.7l0.1-0.1L127.6,45z M135.3,204.8L135.3,204.8c-44,5.6-84.1-25.6-89.7-69.5
			c-0.4-3.2-0.6-6.4-0.6-9.7v95.8c53,44.3,131.9,37.3,176.3-15.7c8.7-10.4,15.7-22.2,20.6-34.9C224.3,187.1,189.7,209.5,135.3,204.8
			L135.3,204.8z"/>
		
			<linearGradient id="SVGID_2_" gradientUnits="userSpaceOnUse" x1="105.9394" y1="104.2901" x2="155.3194" y2="315.5201" gradientTransform="matrix(1 0 0 -1 0 312)">
			<stop  offset="0" style="stop-color:#8EEDA0"/>
			<stop  offset="1" style="stop-color:#6FFFE9"/>
		</linearGradient>
		<path class="st1" d="M250.4,125.2c0,10.9-1.4,21.7-4.2,32.2c-1.2,4.5-2.6,8.9-4.3,13.2l0,0c-17.6,16.4-52.2,38.8-106.6,34.2
			c44-5.6,75.1-45.7,69.5-89.7c-4.9-38.9-37.3-68.5-76.5-70.1l0.1-0.1h-0.8c-0.8,0-1.6,0-2.3,0c-5.6,0-11.2,0.6-16.6,1.7
			C46.1,55.1,15,88.2,0.8,110.7C8.9,42,71.1-7.2,139.8,0.9C202.9,8.2,250.4,61.7,250.4,125.2z"/>
		<path d="M0,126.2L0,126.2v-0.7C0,125.8,0,126,0,126.2z"/>
		
			<linearGradient id="SVGID_3_" gradientUnits="userSpaceOnUse" x1="50.937" y1="5.47" x2="54.107" y2="213.8001" gradientTransform="matrix(1 0 0 -1 0 312)">
			<stop  offset="0" style="stop-color:#8EEDA0"/>
			<stop  offset="1" style="stop-color:#6FFFE9"/>
		</linearGradient>
		<path class="st2" d="M108.6,46.7c-25.5,5.5-46.8,22.9-57.1,46.9c-4.3,10-6.5,20.7-6.5,31.6v162.5c0,12.4-10.1,22.5-22.5,22.5
			S0,300.2,0,287.8V126.2l0,0c0-0.2,0-0.4,0-0.7v-0.3c0-4.9,0.3-9.7,0.8-14.6C15,88.2,46.1,55.1,108.6,46.7z"/>
		<path d="M0,126.2L0,126.2v-0.7C0,125.8,0,126,0,126.2z"/>
		<path d="M128.4,45l-0.1,0.1h-0.7L128.4,45z"/>
	</g>
</g>
</svg>
